<svg width="130" height="16" viewBox="0 0 130 16" fill="none" xmlns="http://www.w3.org/2000/svg">
<path d="M49.1094 4.8179H47.933C46.7343 4.8179 45.9285 5.18851 45.3387 6.47345V4.8179H40.9391C39.741 4.8179 38.9347 5.18851 38.3449 6.47345V4.8179H34.75V15.709H38.3449V10.1965C38.3449 8.67168 38.9982 7.75628 40.2186 7.75628H41.7439V15.709H45.3387V10.1965C45.3387 8.67168 45.9921 7.75628 47.2124 7.75628H49.1078L49.1094 4.8179Z" fill="white"/>
<path d="M16.7548 15.709H19.9139L23.8577 4.81525H20.2406L18.3235 11.1553L16.3625 4.81525H12.7676L16.7548 15.709Z" fill="white"/>
<path d="M2.02616 15.7089H5.59933V7.75626H9.00044V15.7089H12.5477V4.81788H5.59933V4.13967C5.59933 3.39846 6.12242 2.94155 6.95046 2.94155H9.00044V0H6.36384C3.7696 0 2.02828 1.58831 2.02828 3.92154V4.81788H0V7.75626H2.02616V15.7089Z" fill="white"/>
<path d="M34.0103 10.044C34.0103 7.75625 32.6374 4.66275 28.4978 4.66275C24.5979 4.66275 23.0303 7.71284 23.0303 10.2621C23.0303 12.8547 24.8155 15.8831 28.7159 15.8831C31.0253 15.8831 32.9641 14.7284 33.7487 12.833L30.5679 11.9393C30.3497 12.6366 29.6742 13.0289 28.7148 13.0289C27.4294 13.0289 26.6665 12.3317 26.4706 11.1118H33.9663C33.9896 10.872 34.0103 10.5453 34.0103 10.044ZM26.4716 9.00043C26.6892 7.69325 27.3648 7.19187 28.4978 7.19187C29.7181 7.19187 30.3932 8.06333 30.4805 9.00043H26.4716Z" fill="white"/>
<path d="M54.5378 14.0894V15.7089H52.4434V0H54.5378V6.42261C55.1858 5.36373 56.5031 4.65164 57.9934 4.65164C61.3188 4.65164 63.1978 7.02722 63.1978 10.2669C63.1978 13.5065 61.3188 15.8831 57.9738 15.8831C56.5248 15.8831 55.1858 15.1689 54.5378 14.0894ZM61.0599 10.2669C61.0599 7.99927 59.7427 6.4872 57.734 6.4872C55.7042 6.4872 54.3869 7.99927 54.3869 10.2669C54.3869 12.5344 55.7042 14.046 57.734 14.046C59.7427 14.046 61.0599 12.5344 61.0599 10.2669Z" fill="white"/>
<path d="M73.4741 15.709H71.3791V13.7866C70.7967 15.1472 69.5001 15.8815 67.8806 15.8815C65.4187 15.8815 63.8203 14.1106 63.8203 11.519V4.82477H65.9148V11.1087C65.9148 12.8368 66.9297 14.0026 68.463 14.0026C70.1693 14.0026 71.3786 12.6207 71.3786 10.7201V4.82477H73.4735L73.4741 15.709Z" fill="white"/>
<path d="M74.3477 12.167H76.2478C76.3992 13.4626 77.2844 14.1757 78.7531 14.1757C80.0058 14.1757 80.8476 13.506 80.8476 12.6854C80.8476 9.70516 74.6283 12.4265 74.6283 7.76159C74.6283 5.90432 76.2049 4.65167 78.4931 4.65167C80.9339 4.65167 82.5963 5.99062 82.7286 8.04008H80.8068C80.6554 6.76625 79.4244 6.29293 78.4958 6.29293C77.331 6.29293 76.5522 6.83296 76.5522 7.71818C76.5522 10.4612 82.8149 7.65359 82.8149 12.6208C82.8149 14.6072 81.1954 15.8816 78.7552 15.8816C76.2049 15.8832 74.4985 14.4563 74.3477 12.167Z" fill="white"/>
<path d="M85.9661 4.82477H83.8711V15.7089H85.9661V4.82477Z" fill="white"/>
<path d="M87.4766 4.8248H89.5716V6.74665C90.154 5.386 91.45 4.65167 93.0701 4.65167C95.532 4.65167 97.1298 6.42264 97.1298 9.01423V15.709H95.0343V9.42402C95.0343 7.69646 94.0189 6.53011 92.4856 6.53011C90.7798 6.53011 89.5706 7.91248 89.5706 9.81262V15.709H87.4756L87.4766 4.8248Z" fill="white"/>
<path d="M108.812 12.167H110.713C110.864 13.4626 111.75 14.1757 113.218 14.1757C114.471 14.1757 115.313 13.506 115.313 12.6854C115.313 9.70516 109.093 12.4265 109.093 7.76159C109.093 5.90432 110.67 4.65167 112.958 4.65167C115.398 4.65167 117.061 5.99062 117.194 8.04008H115.27C115.119 6.76625 113.888 6.29293 112.959 6.29293C111.794 6.29293 111.015 6.83296 111.015 7.71818C111.015 10.4612 117.278 7.65359 117.278 12.6208C117.278 14.6072 115.658 15.8816 113.218 15.8816C110.67 15.8832 108.963 14.4563 108.812 12.167Z" fill="white"/>
<path d="M106.296 12.167C105.993 13.398 104.957 14.0889 103.358 14.0889C101.458 14.0889 100.119 12.6854 99.9463 10.6338H108.258C108.28 10.4395 108.302 10.0938 108.302 9.81316C108.302 7.04897 106.51 4.65167 103.14 4.65167C99.7933 4.65167 97.8926 7.15697 97.8926 10.2018C97.8931 13.2254 99.9897 15.8832 103.358 15.8832C105.81 15.8832 107.664 14.6517 108.258 12.7198L106.296 12.167ZM103.142 6.33634C104.935 6.33634 106.058 7.43758 106.188 9.10054H100.011C100.335 7.28669 101.437 6.33634 103.142 6.33634Z" fill="white"/>
<path d="M117.816 12.167H119.717C119.868 13.4626 120.754 14.1757 122.222 14.1757C123.475 14.1757 124.317 13.506 124.317 12.6854C124.317 9.70516 118.097 12.4265 118.097 7.76159C118.097 5.90432 119.674 4.65167 121.962 4.65167C124.402 4.65167 126.065 5.99062 126.197 8.04008H124.275C124.124 6.76625 122.893 6.29293 121.965 6.29293C120.8 6.29293 120.021 6.83296 120.021 7.71818C120.021 10.4612 126.284 7.65359 126.284 12.6208C126.284 14.6072 124.664 15.8816 122.223 15.8816C119.674 15.8832 117.968 14.4563 117.816 12.167Z" fill="white"/>
<path d="M84.9175 1.28467e-09C84.5432 1.28467e-09 84.2356 0.147183 83.955 0.401313C83.6981 0.660878 83.5539 1.01131 83.5537 1.37654C83.5537 1.73761 83.6877 2.04522 83.955 2.32582C84.2356 2.59318 84.5432 2.72713 84.9175 2.72713C85.2918 2.72713 85.5994 2.59318 85.8805 2.32582C86.1346 2.04522 86.2813 1.73761 86.2813 1.37654C86.283 1.19637 86.2489 1.01766 86.1812 0.850718C86.1134 0.683781 86.0132 0.531931 85.8864 0.403938C85.7596 0.275946 85.6086 0.174349 85.4424 0.105017C85.2761 0.0356853 85.0977 -7.81868e-06 84.9175 1.28467e-09Z" fill="white"/>
<path d="M129.88 14.5066V14.532C129.88 14.8903 129.738 15.234 129.484 15.4874C129.231 15.7408 128.887 15.8831 128.529 15.8831C128.171 15.8831 127.827 15.7408 127.573 15.4874C127.32 15.234 127.178 14.8903 127.178 14.532V14.5066C127.178 14.1482 127.32 13.8046 127.573 13.5512C127.827 13.2978 128.171 13.1555 128.529 13.1555C128.887 13.1555 129.231 13.2978 129.484 13.5512C129.738 13.8046 129.88 14.1482 129.88 14.5066Z" fill="white"/>
</svg>
