<svg width="24" height="20" viewBox="0 0 24 20" fill="none" xmlns="http://www.w3.org/2000/svg">
<g clip-path="url(#clip0)">
<path d="M22.6154 0H1.38462C0.619913 0 0 0.619913 0 1.38462C0 2.14932 0.619913 2.76923 1.38462 2.76923H22.6154C23.3801 2.76923 24 2.14932 24 1.38462C24 0.619913 23.3801 0 22.6154 0Z" fill="#404145"/>
<path d="M22.6154 8.30762H1.38462C0.619913 8.30762 0 8.92753 0 9.69223C0 10.4569 0.619913 11.0768 1.38462 11.0768H22.6154C23.3801 11.0768 24 10.4569 24 9.69223C24 8.92753 23.3801 8.30762 22.6154 8.30762Z" fill="#404145"/>
<path d="M22.6154 16.6155H1.38462C0.619913 16.6155 0 17.2354 0 18.0001C0 18.7648 0.619913 19.3847 1.38462 19.3847H22.6154C23.3801 19.3847 24 18.7648 24 18.0001C24 17.2354 23.3801 16.6155 22.6154 16.6155Z" fill="#404145"/>
</g>
<defs>
<clipPath id="clip0">
<rect width="24" height="19.3846" fill="white"/>
</clipPath>
</defs>
</svg>
